<?xml version="1.0" encoding="UTF-8" standalone="no"?>
<svg
   viewBox="0 0 1557.4688 176.25"
   version="1.1"
   id="svg2"
   sodipodi:docname="logo.svg"
   width="1557.4688"
   height="176.25"
   inkscape:export-filename="logo zwart.png"
   inkscape:export-xdpi="96"
   inkscape:export-ydpi="96"
   inkscape:version="1.4.2 (f4327f4, 2025-05-13)"
   xmlns:inkscape="http://www.inkscape.org/namespaces/inkscape"
   xmlns:sodipodi="http://sodipodi.sourceforge.net/DTD/sodipodi-0.dtd"
   xmlns="http://www.w3.org/2000/svg"
   xmlns:svg="http://www.w3.org/2000/svg">
  <defs
     id="defs2" />
  <sodipodi:namedview
     id="namedview2"
     pagecolor="#ffffff"
     bordercolor="#000000"
     borderopacity="1"
     inkscape:showpageshadow="false"
     inkscape:pageopacity="0.0"
     inkscape:pagecheckerboard="true"
     inkscape:deskcolor="#ffffff"
     inkscape:zoom="3.1692308"
     inkscape:cx="747.34223"
     inkscape:cy="154.76942"
     inkscape:window-width="1920"
     inkscape:window-height="1009"
     inkscape:window-x="3432"
     inkscape:window-y="344"
     inkscape:window-maximized="1"
     inkscape:current-layer="text2"
     inkscape:export-bgcolor="#ffffff00"
     showborder="true"
     borderlayer="false"
     inkscape:antialias-rendering="false" />
  <g
     id="text2"
     style="font-weight:700;font-size:192px;font-family:'DM Sans', sans-serif"
     aria-label="//NDE Service">
    <path
       style="font-family:Verdana;-inkscape-font-specification:'Verdana Bold';fill:#fa4e42"
       d="M 103.125,0 28.78125,176.25 H 0 L 74.0625,0 Z M 235.5,0 161.15625,176.25 H 132.375 L 206.4375,0 Z"
       id="path2" />
    <path
       style="font-style:italic;font-family:Verdana;-inkscape-font-specification:'Verdana Bold Italic'"
       d="M 385.875,145.875 H 355.21875 L 314.25,49.21875 291.9375,145.875 H 258.75 L 291,6.28125 h 40.3125 l 35.0625,80.8125 18.5625,-80.8125 H 418.125 Z M 571.6875,60.75 q 0,23.71875 -12.46875,43.78125 -12.46875,20.0625 -31.96875,30.75 -11.8125,6.375 -24.65625,8.53125 -12.84375,2.0625 -30.75,2.0625 H 421.3125 L 453.5625,6.28125 H 498.75 q 19.96875,0 32.15625,3.09375 12.1875,3.09375 19.6875,8.34375 10.3125,7.125 15.65625,17.8125 5.4375,10.59375 5.4375,25.21875 z M 534,64.03125 q 0,-9.5625 -3.5625,-16.40625 -3.5625,-6.9375 -10.875,-11.15625 -3.375,-1.875 -6.9375,-2.8125 -3.46875,-1.03125 -7.96875,-1.5 -4.3125,-0.375 -9.84375,-0.375 -5.53125,0 -9.65625,0 h -1.21875 l -20.625,88.5 h 3.28125 q 5.4375,0 11.625,0 6.1875,0 10.03125,-0.46875 4.96875,-0.46875 8.90625,-1.5 4.03125,-1.03125 8.8125,-3.46875 13.5,-6.9375 20.71875,-20.71875 Q 534,80.34375 534,64.03125 Z M 714.09375,6.28125 708,32.71875 h -65.15625 l -5.8125,24.9375 H 697.5 l -6.1875,26.53125 h -60.46875 l -8.15625,35.25 h 65.15625 l -6,26.4375 H 580.6875 L 612.9375,6.28125 Z M 828.75,148.40625 q -17.90625,0 -31.96875,-3.09375 -13.96875,-3.09375 -24.1875,-7.6875 l 7.21875,-33.46875 h 3.9375 q 9.65625,8.8125 22.6875,13.6875 13.03125,4.78125 28.03125,4.78125 15.375,0 22.59375,-4.125 7.21875,-4.21875 7.21875,-12 0,-2.90625 -1.21875,-4.96875 -1.125,-2.15625 -4.5,-4.21875 -3.375,-2.0625 -9.28125,-4.03125 -5.8125,-2.0625 -15.09375,-4.6875 Q 823.96875,85.78125 815.8125,82.5 807.75,79.21875 802.03125,74.71875 796.3125,70.125 793.3125,64.125 q -2.90625,-6 -2.90625,-14.34375 0,-21 18.46875,-33.46875 Q 827.4375,3.75 859.59375,3.75 875.0625,3.75 888.75,6.28125 902.53125,8.8125 912.09375,13.125 L 905.25,45.28125 h -3.84375 q -7.3125,-6.75 -19.3125,-11.25 -11.90625,-4.59375 -26.0625,-4.59375 -13.875,0 -21.46875,4.03125 -7.59375,4.03125 -7.59375,11.15625 0,3.28125 1.125,5.4375 1.125,2.15625 4.59375,4.21875 3,1.875 9.46875,4.125 6.46875,2.15625 15.1875,4.5 23.4375,6.28125 33.46875,14.71875 10.03125,8.4375 10.03125,22.875 0,12.09375 -5.4375,21.28125 -5.4375,9.1875 -15,14.90625 -10.03125,6.09375 -22.78125,8.90625 -12.75,2.8125 -28.875,2.8125 z M 997.3125,79.6875 q 0.28125,-1.6875 0.375,-3.09375 0.1875,-1.40625 0.1875,-2.90625 0,-7.40625 -4.59375,-11.34375 -4.59375,-3.9375 -13.21875,-3.9375 -10.40625,0 -17.53125,5.625 -7.03125,5.625 -10.6875,15.65625 z m -25.78125,69 Q 944.625,148.6875 930,136.78125 915.375,124.875 915.375,103.875 q 0,-14.34375 4.78125,-26.34375 4.78125,-12 13.78125,-21.09375 8.625,-8.8125 21.5625,-13.96875 12.9375,-5.15625 28.40625,-5.15625 23.53125,0 35.43745,9.5625 12.0001,9.46875 12.0001,28.03125 0,6.375 -1.3125,12.46875 -1.2188,6.09375 -3.2813,12.09375 h -78.1875 q 0,0.5625 0,1.125 0,0.46875 0,1.03125 0,10.96875 7.6875,17.15625 7.6875,6.1875 23.53125,6.1875 11.0625,0 20.90625,-3.75 9.9375,-3.75 17.25,-8.34375 h 3.75 l -6.2813,27.09375 q -9.8437,4.3125 -20.7187,6.46875 -10.875,2.25 -23.15625,2.25 z M 1132.9688,72.75 h -3 q -2.25,-0.75 -6.375,-1.125 -4.125,-0.375 -8.1563,-0.375 -6.6562,0 -12.8437,1.03125 -6.1875,0.9375 -12.75,3.09375 l -16.3125,70.5 h -33.9375 l 24.375,-105.28125 h 33.9375 l -3.5625,15.46875 q 9.5625,-7.03125 19.0312,-11.4375 9.5625,-4.40625 19.2188,-4.40625 1.7812,0 3.9375,0.09375 2.25,0.09375 3.9375,0.28125 z M 1264.3125,40.59375 1199.3438,145.875 h -38.4375 L 1144.9688,40.59375 h 34.7812 l 7.6875,72.46875 40.5938,-72.46875 z m 53.625,0 -24.375,105.28125 H 1259.625 L 1284,40.59375 Z M 1328.25,0 l -5.9062,25.59375 h -35.8125 L 1292.4375,0 Z m 51.375,148.6875 q -10.7812,0 -20.25,-2.71875 -9.375,-2.625 -16.4062,-8.25 -6.8438,-5.53125 -10.6875,-13.875 -3.8438,-8.34375 -3.8438,-19.3125 0,-14.15625 5.3438,-26.25 5.4375,-12.1875 15.1875,-21.28125 9.5625,-8.90625 23.3437,-14.0625 13.7813,-5.25 29.8125,-5.25 9.6563,0 19.125,2.15625 9.5625,2.15625 17.7188,6.28125 l -7.125,28.78125 h -4.7813 Q 1421.5313,68.25 1414.5,65.0625 q -6.9375,-3.28125 -15.6562,-3.28125 -15.9375,0 -25.5938,11.34375 -9.6562,11.25 -9.6562,28.125 0,11.71875 5.9062,17.53125 6,5.8125 18.5625,5.8125 9.75,0 17.7188,-3.9375 8.0625,-4.03125 13.7812,-8.90625 h 4.7813 l -7.125,28.78125 q -10.125,4.40625 -17.8125,6.28125 -7.5938,1.875 -19.7813,1.875 z m 143.8125,-69 Q 1523.7188,78 1523.8125,76.59375 1524,75.1875 1524,73.6875 q 0,-7.40625 -4.5937,-11.34375 -4.5938,-3.9375 -13.2188,-3.9375 -10.4062,0 -17.5312,5.625 -7.0313,5.625 -10.6875,15.65625 z m -25.7812,69 q -26.9063,0 -41.5313,-11.90625 Q 1441.5,124.875 1441.5,103.875 q 0,-14.34375 4.7813,-26.34375 4.7812,-12 13.7812,-21.09375 8.625,-8.8125 21.5625,-13.96875 12.9375,-5.15625 28.4063,-5.15625 23.5312,0 35.4375,9.5625 12,9.46875 12,28.03125 0,6.375 -1.3125,12.46875 -1.2188,6.09375 -3.2813,12.09375 h -78.1875 q 0,0.5625 0,1.125 0,0.46875 0,1.03125 0,10.96875 7.6875,17.15625 7.6875,6.1875 23.5313,6.1875 11.0625,0 20.9062,-3.75 9.9375,-3.75 17.25,-8.34375 h 3.75 l -6.2812,27.09375 q -9.8438,4.3125 -20.7188,6.46875 -10.875,2.25 -23.1562,2.25 z"
       id="path3" />
  </g>
  <text
     xml:space="preserve"
     style="font-style:normal;font-variant:normal;font-weight:bold;font-stretch:normal;font-size:48px;font-family:Verdana;-inkscape-font-specification:'Verdana Bold';text-align:start;writing-mode:lr-tb;direction:ltr;text-anchor:start;fill:#fa4e42;fill-opacity:1"
     x="-1042.0424"
     y="-968.04004"
     id="text6"><tspan
       sodipodi:role="line"
       id="tspan6"
       x="-1042.0424"
       y="-968.04004" /></text>
</svg>
